#!OML:ASF G:\JayActor3\Patient Classification 1\Patient 1\Session 2\male.ASF
:FULLY-SPECIFIED
:DEGREES
4115
root 0.804689 16.9639 -3.96988 -539.232 69.4194 -183.419
lowerback 7.89214 2.24414 5.8008
upperback 1.50181 3.6454 2.47316
thorax -2.66802 1.81734 -1.05138
lowerneck -12.0508 -6.37314 -4.03075
upperneck 9.86721 -8.86719 8.2002
head 5.50532 -3.89004 2.46309
rclavicle 7.7526e-015 1.11319e-014
rhumerus -44.3393 17.0565 -83.6709
rradius 56.4639
rwrist -7.32011
rhand -28.1868 8.66796
rfingers 7.12502
rthumb -1.56633 -21.306
lclavicle 7.7526e-015 1.11319e-014
lhumerus -54.9465 -30.3193 83.2299
lradius 55.1287
lwrist 17.9385
lhand -13.6922 16.3537
lfingers 7.12502
lthumb 12.4259 45.9643
rfemur -19.5062 -7.5783 21.7698
rtibia 55.3519
rfoot -9.12728 1.91091
rtoes 17.6192
lfemur -19.8968 9.65999 -25.5351
ltibia 29.8535
lfoot -15.8041 -8.11652
ltoes -19.8991
4116
root 0.956067 16.9712 -3.98419 -538.864 69.5185 -182.784
lowerback 7.65463 2.21904 5.68445
upperback 1.42834 3.58256 2.44877
thorax -2.62105 1.78539 -0.996872
lowerneck -11.9987 -6.33863 -4.07599
upperneck 9.91137 -8.83179 8.32817
head 5.51655 -3.86465 2.51468
rclavicle 9.30312e-014 2.22639e-014
rhumerus -44.5074 17.0231 -83.76
rradius 56.5263
rwrist -7.28601
rhand -28.1732 8.67998
rfingers 7.12502
rthumb -1.55321 -21.2941
lclavicle 9.30312e-014 2.22639e-014
lhumerus -55.1505 -29.8905 83.0854
lradius 55.6319
lwrist 17.8442
lhand -13.5167 16.2992
lfingers 7.12502
lthumb 12.5951 45.8995
rfemur -19.9286 -8.0792 21.7824
rtibia 56.9265
rfoot -6.68743 1.62247
rtoes 18.9288
lfemur -19.0649 9.44511 -25.1783
ltibia 29.5073
lfoot -15.1513 -7.38458
ltoes -17.9585
4117
root 1.10642 16.9741 -3.99771 -538.544 69.6442 -182.186
lowerback 7.43122 2.1875 5.53891
upperback 1.36798 3.50991 2.42102
thorax -2.57007 1.74915 -0.929424
lowerneck -11.955 -6.29452 -4.12088
upperneck 9.96463 -8.78332 8.44983
head 5.53077 -3.83296 2.56526
rclavicle 2.3059e-014 6.36111e-015
rhumerus -44.6929 17.0442 -83.8662
rradius 56.6155
rwrist -7.22339
rhand -28.1494 8.69793
rfingers 7.12502
rthumb -1.53018 -21.2763
lclavicle 2.3059e-014 6.36111e-015
lhumerus -55.3089 -29.4538 82.9771
lradius 56.1359
lwrist 17.835
lhand -13.4035 16.2462
lfingers 7.12502
lthumb 12.7042 45.8398
rfemur -20.4908 -8.56152 21.7515
rtibia 58.6645
rfoot -4.09175 1.10299
rtoes 20.2536
lfemur -18.1208 9.20067 -24.7791
ltibia 29.1562
lfoot -14.7583 -6.60193
ltoes -16.1924
4118
root 1.2558 16.9721 -4.01071 -538.294 69.7941 -181.647
lowerback 7.22197 2.15284 5.36476
upperback 1.31965 3.43161 2.38232
thorax -2.5154 1.71047 -0.857564
lowerneck -11.9059 -6.24349 -4.15096
upperneck 10.0231 -8.72706 8.5605
head 5.54393 -3.79769 2.61098
rclavicle -7.45443e-014 -9.54166e-015
rhumerus -44.8979 17.0991 -83.9922
rradius 56.723
rwrist -7.12629
rhand -28.1083 8.72175
rfingers 7.12502
rthumb -1.4905 -21.2528
lclavicle -7.45443e-014 -9.54166e-015
lhumerus -55.4046 -29.0179 82.9002
lradius 56.6191
lwrist 17.9055
lhand -13.3555 16.1849
lfingers 7.12502
lthumb 12.7505 45.7756
rfemur -21.1625 -8.99231 21.6686
rtibia 60.5235
rfoot -1.39179 0.412521
rtoes 21.5985
lfemur -17.0672 8.9377 -24.3565
ltibia 28.7717
lfoot -14.6279 -5.92082
ltoes -14.7437
4119
root 1.40436 16.9654 -4.02321 -538.132 69.962 -181.183
lowerback 7.0277 2.11352 5.15991
upperback 1.28348 3.34559 2.3312
thorax -2.4574 1.66828 -0.781481
lowerneck -11.8513 -6.18679 -4.16242
upperneck 10.0903 -8.66477 8.65376
head 5.55673 -3.75993 2.64901
rclavicle 8.90555e-014 2.38542e-014
rhumerus -45.1217 17.1836 -84.1367
rradius 56.8401
rwrist -7
rhand -28.0721 8.7394
rfingers 7.12502
rthumb -1.45551 -21.2354
lclavicle 8.90555e-014 2.38542e-014
lhumerus -55.4197 -28.5741 82.8505
lradius 57.0602
lwrist 18.0332
lhand -13.3682 16.1164
lfingers 7.12502
lthumb 12.7382 45.7078
rfemur -21.9112 -9.34792 21.5335
rtibia 62.4556
rfoot 1.37412 -0.38254
rtoes 22.952
lfemur -15.9202 8.68012 -23.93
ltibia 28.3316
lfoot -14.7053 -5.45291
ltoes -13.6318
4120
root 1.55215 16.9544 -4.03517 -538.09 70.1374 -180.829
lowerback 6.85579 2.07059 4.92173
upperback 1.2564 3.25341 2.26013
thorax -2.4029 1.62301 -0.707987
lowerneck -11.7779 -6.12735 -4.15494
upperneck 10.1585 -8.60128 8.73987
head 5.56537 -3.72172 2.68243
rclavicle -1.27222e-014 -1.59028e-014
rhumerus -45.3649 17.2689 -84.3004
rradius 56.953
rwrist -6.85957
rhand -28.0406 8.74448
rfingers 7.12502
rthumb -1.42508 -21.2305
lclavicle -1.27222e-014 -1.59028e-014
lhumerus -55.3394 -28.1319 82.8268
lradius 57.4328
lwrist 18.1996
lhand -13.4598 16.0694
lfingers 7.12502
lthumb 12.65 45.6664
rfemur -22.7036 -9.62162 21.3366
rtibia 64.4135
rfoot 4.18418 -1.19855
rtoes 24.244
lfemur -14.705 8.46121 -23.5263
ltibia 27.8303
lfoot -14.907 -5.2366
ltoes -12.7385
4121
root 1.69901 16.9403 -4.04653 -538.199 70.3054 -180.613
lowerback 6.71748 2.02282 4.64922
upperback 1.23664 3.1541 2.16468
thorax -2.35978 1.57394 -0.641426
lowerneck -11.691 -6.06995 -4.12846
upperneck 10.2333 -8.54332 8.81918
head 5.57294 -3.68598 2.71047
rclavicle 3.99557e-014 1.43125e-014
rhumerus -45.6299 17.3272 -84.4775
rradius 57.0486
rwrist -6.71458
rhand -28.0161 8.73867
rfingers 7.12502
rthumb -1.40149 -21.2365
lclavicle 3.99557e-014 1.43125e-014
lhumerus -55.1516 -27.6967 82.8334
lradius 57.7154
lwrist 18.3769
lhand -13.6337 16.0184
lfingers 7.12502
lthumb 12.4823 45.6256
rfemur -23.5114 -9.82279 21.0707
rtibia 66.3526
rfoot 7.03256 -2.00121
rtoes 25.5105
lfemur -13.4493 8.30679 -23.1681
ltibia 27.2816
lfoot -15.1303 -5.20032
ltoes -11.9318
4122
root 1.84477 16.9248 -4.05714 -538.491 70.448 -180.569
lowerback 6.62345 1.96806 4.34053
upperback 1.22316 3.04523 2.04143
thorax -2.33498 1.51975 -0.584421
lowerneck -11.5982 -6.018 -4.09432
upperneck 10.3166 -8.49506 8.90346
head 5.58272 -3.65402 2.73804
rclavicle -1.3418e-014 3.65764e-014
rhumerus -45.9136 17.3434 -84.6632
rradius 57.1111
rwrist -6.59147
rhand -28.0088 8.71989
rfingers 7.12502
rthumb -1.39437 -21.2553
lclavicle -1.3418e-014 3.65764e-014
lhumerus -54.8434 -27.2839 82.881
lradius 57.8817
lwrist 18.5456
lhand -13.9038 15.9554
lfingers 7.12502
lthumb 12.2219 45.5783
rfemur -24.3153 -9.96773 20.7293
rtibia 68.2351
rfoot 9.90598 -2.77686
rtoes 26.6967
lfemur -12.1808 8.21991 -22.8739
ltibia 26.7149
lfoot -15.3156 -5.19423
ltoes -11.24
4123
root 1.98918 16.9086 -4.06665 -538.997 70.545 -180.723
lowerback 6.58825 1.90087 3.98843
upperback 1.2172 2.91983 1.89289
thorax -2.33601 1.45708 -0.530145
lowerneck -11.5148 -5.97356 -4.06444
upperneck 10.4149 -8.45804 8.99515
head 5.6 -3.62635 2.76722
rclavicle -3.81667e-014 -2.62396e-014
rhumerus -46.214 17.3132 -84.8481
rradius 57.1297
rwrist -6.51099
rhand -28.0163 8.67789
rfingers 7.12502
rthumb -1.40169 -21.2972
lclavicle -3.81667e-014 -2.62396e-014
lhumerus -54.4107 -26.9047 82.9882
lradius 57.9116
lwrist 18.6883
lhand -14.299 15.8836
lfingers 7.12502
lthumb 11.8408 45.5288
rfemur -25.0981 -10.079 20.3066
rtibia 70.0328
rfoot 12.7367 -3.49422
rtoes 27.5762
lfemur -10.9164 8.18553 -22.655
ltibia 26.167
lfoot -15.4523 -5.13401
ltoes -10.6972
4124
root 2.1318 16.892 -4.07469 -539.734 70.5832 -181.097
lowerback 6.61791 1.82101 3.58662
upperback 1.21808 2.77698 1.71975
thorax -2.36705 1.38563 -0.474194
lowerneck -11.4573 -5.93897 -4.04748
upperneck 10.5347 -8.43482 9.09729
head 5.6303 -3.60369 2.7997
rclavicle 2.42517e-014 9.54166e-015
rhumerus -46.5305 17.2316 -85.024
rradius 57.0947
rwrist -6.48598
rhand -28.043 8.62034
rfingers 7.12502
rthumb -1.42749 -21.3546
lclavicle 2.42517e-014 9.54166e-015
lhumerus -53.8487 -26.5797 83.1702
lradius 57.7922
lwrist 18.7896
lhand -14.8149 15.8096
lfingers 7.12502
lthumb 11.3433 45.4828
rfemur -25.8558 -10.1704 19.7997
rtibia 71.7281
rfoot 15.275 -4.0527
rtoes 27.7812
lfemur -9.67631 8.17589 -22.5197
ltibia 25.6713
lfoot -15.5346 -5.0411
ltoes -10.1628
